<?xml version="1.0" encoding="utf-8"?>
<!-- Generator: Adobe Illustrator 15.0.0, SVG Export Plug-In . SVG Version: 6.00 Build 0)  -->
<!DOCTYPE svg PUBLIC "-//W3C//DTD SVG 1.1//EN" "http://www.w3.org/Graphics/SVG/1.1/DTD/svg11.dtd">
<svg version="1.1" id="Layer_1" xmlns="http://www.w3.org/2000/svg" xmlns:xlink="http://www.w3.org/1999/xlink" x="0px" y="0px"
	 width="395px" height="108px" viewBox="0 0 395 108" enable-background="new 0 0 395 108" xml:space="preserve">
<rect x="0.532" fill="#FFFFFF" width="395" height="108"/>
<g>
	<path fill="#172982" d="M306.187,25.917l38.542-22.256c1.955-1.128,4.361-1.128,6.312,0l38.541,22.256
		c1.955,1.13,3.153,3.214,3.153,5.468v44.505c0,2.254-1.198,4.335-3.153,5.465l-38.541,22.256c-1.95,1.127-4.356,1.127-6.312,0
		l-38.542-22.256c-1.95-1.13-3.152-3.211-3.152-5.465V31.386C303.035,29.131,304.237,27.047,306.187,25.917"/>
	<g>
		<defs>
			<path id="SVGID_1_" d="M344.732,3.662l-38.545,22.256c-1.952,1.127-3.155,3.214-3.155,5.468v44.502
				c0,2.259,1.203,4.34,3.155,5.464l38.545,22.26c1.949,1.129,4.358,1.129,6.309,0l38.541-22.26
				c1.955-1.124,3.153-3.205,3.153-5.464V31.386c0-2.254-1.198-4.341-3.153-5.468L351.041,3.662
				c-0.976-0.563-2.062-0.846-3.152-0.846C346.795,2.816,345.706,3.098,344.732,3.662"/>
		</defs>
		<clipPath id="SVGID_2_">
			<use xlink:href="#SVGID_1_"  overflow="visible"/>
		</clipPath>
		<rect x="347.888" y="-0.335" clip-path="url(#SVGID_2_)" fill="#E1007A" width="47.364" height="53.521"/>
		<rect x="347.888" y="53.183" clip-path="url(#SVGID_2_)" fill="#1A171B" width="49.734" height="55.126"/>
		<rect x="298.477" y="-1.386" clip-path="url(#SVGID_2_)" fill="#009DDF" width="49.411" height="54.571"/>
		<rect x="298.962" y="53.186" clip-path="url(#SVGID_2_)" fill="#FFEC00" width="48.926" height="52.25"/>
		<polygon clip-path="url(#SVGID_2_)" fill="none" stroke="#FFFFFF" stroke-width="1.548" points="304.846,78.482 304.846,28.791 
			347.888,3.93 390.921,28.791 390.921,78.482 347.888,103.34 		"/>
	</g>
	<path fill="none" stroke="#172982" stroke-width="0.774" d="M306.187,25.917l38.542-22.256c1.955-1.128,4.361-1.128,6.312,0
		l38.541,22.256c1.955,1.13,3.153,3.214,3.153,5.468v44.505c0,2.254-1.198,4.335-3.153,5.465l-38.541,22.256
		c-1.95,1.127-4.356,1.127-6.312,0l-38.542-22.256c-1.95-1.13-3.152-3.211-3.152-5.465V31.386
		C303.035,29.131,304.237,27.047,306.187,25.917z"/>
	<path fill="#172982" d="M347.136,94.458l-4.173-4.436c-1.104-1.169-1.719-2.715-1.719-4.325V46.087c0,0,0.677-7.612-7.882-8.472
		c-7.939-0.795-11.639,4.828-11.667,9.235c0,0-1.32,13.729,9.712,12.169c2.289-0.326,4.675,0.628,5.912,2.582
		c1.057,1.671,1.165,3.837-2.222,6.053c-0.856,0.554-1.848,0.873-2.866,0.959c-4.853,0.401-19.527,0.031-21.064-19.01
		c0,0-1.636-21.71,21.502-21.71c0,0,8.682-0.203,14.467,7.244h0.057c5.79-7.447,14.473-7.244,14.473-7.244
		c23.145,0,21.5,21.71,21.5,21.71c-1.535,19.041-16.211,19.411-21.062,19.01c-1.017-0.086-2.013-0.405-2.864-0.959
		c-3.393-2.216-3.283-4.382-2.225-6.053c1.235-1.954,3.619-2.908,5.909-2.582c11.037,1.563,9.718-12.169,9.718-12.169
		c-0.026-4.407-3.729-10.03-11.667-9.235c-8.56,0.86-7.884,8.472-7.884,8.472v39.61c0,1.611-0.613,3.157-1.716,4.326l-4.183,4.436
		H347.136z"/>
	<path fill="none" stroke="#FFFFFF" stroke-width="0.774" d="M347.136,94.458l-4.173-4.436c-1.104-1.169-1.719-2.715-1.719-4.325
		V46.087c0,0,0.677-7.612-7.882-8.472c-7.939-0.795-11.639,4.828-11.667,9.235c0,0-1.32,13.729,9.712,12.169
		c2.289-0.326,4.675,0.628,5.912,2.582c1.057,1.671,1.165,3.837-2.222,6.053c-0.856,0.554-1.848,0.873-2.866,0.959
		c-4.853,0.401-19.527,0.031-21.064-19.01c0,0-1.636-21.71,21.502-21.71c0,0,8.682-0.203,14.467,7.244h0.057
		c5.79-7.447,14.473-7.244,14.473-7.244c23.145,0,21.5,21.71,21.5,21.71c-1.535,19.041-16.211,19.411-21.062,19.01
		c-1.017-0.086-2.013-0.405-2.864-0.959c-3.393-2.216-3.283-4.382-2.225-6.053c1.235-1.954,3.619-2.908,5.909-2.582
		c11.037,1.563,9.718-12.169,9.718-12.169c-0.026-4.407-3.729-10.03-11.667-9.235c-8.56,0.86-7.884,8.472-7.884,8.472v39.61
		c0,1.611-0.613,3.157-1.716,4.326l-4.183,4.436H347.136z"/>
</g>
<g>
	<path fill="#E1001A" d="M22.468,37.288c0-1.143-0.193-1.951-0.578-2.422c-0.387-0.472-1.066-0.708-2.039-0.708
		c-0.17,0-0.332,0.009-0.487,0.025c-0.154,0.016-0.292,0.033-0.416,0.049V43.3h-5.605c-1.745,0-3.184-0.199-4.318-0.596
		c-1.135-0.397-2.039-0.937-2.71-1.616c-0.671-0.679-1.143-1.466-1.413-2.36c-0.27-0.894-0.405-1.83-0.405-2.807
		c0-0.531,0.042-1.114,0.127-1.751c0.085-0.637,0.189-1.221,0.313-1.752l3.126-0.621c-0.216,0.597-0.371,1.197-0.463,1.801
		c-0.092,0.605-0.139,1.255-0.139,1.95c0,0.812,0.101,1.537,0.301,2.175c0.201,0.638,0.544,1.18,1.03,1.627
		c0.486,0.447,1.135,0.787,1.946,1.019c0.81,0.231,1.818,0.348,3.022,0.348h2.246v-8.745c0.632-0.149,1.274-0.265,1.922-0.348
		c0.648-0.083,1.32-0.124,2.014-0.124c1.065,0,1.949,0.137,2.652,0.41c0.703,0.273,1.262,0.658,1.68,1.155
		c0.416,0.498,0.709,1.103,0.879,1.814c0.169,0.713,0.255,1.508,0.255,2.385v3.454h2.177V43.3h-5.118V37.288z"/>
	<path fill="#E1001A" d="M34.302,43.549c-0.649,0-1.262-0.162-1.841-0.484c-0.579-0.323-1.054-0.824-1.425-1.503
		c-0.355,0.712-0.776,1.18-1.262,1.404c-0.486,0.223-1.015,0.335-1.587,0.335h-1.064v-2.583h0.833c0.417,0,0.78-0.104,1.089-0.311
		c0.308-0.207,0.563-0.488,0.764-0.845c0.201-0.355,0.351-0.77,0.451-1.242c0.101-0.472,0.151-0.973,0.151-1.503v-4.944h2.964v6.483
		c0,0.895,0.135,1.541,0.405,1.938c0.271,0.398,0.652,0.597,1.146,0.597c0.68,0,1.143-0.319,1.39-0.956
		c0.247-0.638,0.37-1.678,0.37-3.119v-4.944h2.918v6.907c0,1.292,0.548,1.938,1.644,1.938h1.413V36.94
		c0-1.193-0.043-2.269-0.127-3.229c-0.085-0.961-0.189-1.847-0.313-2.659l2.988-0.422c0.123,0.763,0.22,1.656,0.289,2.683
		c0.071,1.027,0.105,2.087,0.105,3.181v4.223h1.945V43.3h-6.462c-0.941,0-1.694-0.145-2.257-0.435
		c-0.564-0.29-0.993-0.741-1.285-1.354c-0.387,0.662-0.834,1.167-1.344,1.515C35.691,43.375,35.058,43.549,34.302,43.549z"/>
	<path fill="#E1001A" d="M48.289,48.741c-0.463,0-0.848-0.178-1.157-0.534c-0.309-0.356-0.463-0.783-0.463-1.28
		c0-0.479,0.154-0.897,0.463-1.253c0.309-0.356,0.694-0.535,1.157-0.535c0.463,0,0.846,0.178,1.147,0.535
		c0.3,0.356,0.452,0.774,0.452,1.253c0,0.497-0.151,0.924-0.452,1.28C49.135,48.563,48.752,48.741,48.289,48.741z M47.085,40.717
		h3.242v-8.845h2.941v8.845h2.177V43.3h-8.36V40.717z M52.064,48.741c-0.463,0-0.85-0.178-1.158-0.534
		c-0.309-0.356-0.463-0.783-0.463-1.28c0-0.479,0.155-0.897,0.463-1.253c0.309-0.356,0.695-0.535,1.158-0.535
		s0.845,0.178,1.146,0.535c0.302,0.356,0.452,0.774,0.452,1.253c0,0.497-0.149,0.924-0.452,1.28
		C52.909,48.563,52.527,48.741,52.064,48.741z"/>
	<path fill="#E1001A" d="M54.981,40.717h1.228c1.59,0,3.042-0.315,4.354-0.943c-0.34-0.349-0.664-0.688-0.972-1.02
		c-0.309-0.331-0.637-0.646-0.985-0.944c-0.347-0.298-0.737-0.579-1.169-0.845c-0.432-0.265-0.949-0.513-1.551-0.745l0.324-2.708
		c0.926-0.696,1.891-1.251,2.895-1.665c1.003-0.414,2.03-0.622,3.081-0.622c0.849,0,1.589,0.117,2.223,0.349
		c0.633,0.232,1.161,0.546,1.586,0.943c0.424,0.397,0.741,0.866,0.949,1.405c0.208,0.538,0.313,1.122,0.313,1.751
		c0,0.729-0.193,1.441-0.579,2.136c-0.386,0.696-0.926,1.366-1.621,2.012c0.433,0.266,0.841,0.48,1.228,0.646
		c0.386,0.165,0.857,0.249,1.413,0.249h0.763V43.3H67.58c-1.065,0-2.003-0.153-2.814-0.459c-0.81-0.307-1.54-0.716-2.188-1.23
		c-0.926,0.531-1.911,0.944-2.952,1.242c-1.043,0.298-2.082,0.447-3.115,0.447h-1.529V40.717z M62.971,38.282
		c0.417-0.381,0.729-0.778,0.938-1.193c0.208-0.414,0.313-0.812,0.313-1.192c0-0.612-0.201-1.102-0.602-1.466
		c-0.402-0.364-0.942-0.546-1.621-0.546c-0.602,0-1.139,0.104-1.61,0.311c-0.471,0.207-0.915,0.459-1.332,0.757
		c0.401,0.166,0.76,0.361,1.077,0.584c0.316,0.224,0.625,0.472,0.926,0.745c0.302,0.274,0.603,0.576,0.904,0.907
		C62.265,37.521,62.6,37.884,62.971,38.282z"/>
	<path fill="#E1001A" d="M67.997,40.717h3.172V25.338h2.965V43.3h-6.137V40.717z"/>
	<path fill="#E1001A" d="M78.695,27.847c-0.277-0.033-0.598-0.062-0.961-0.087c-0.362-0.024-0.713-0.053-1.053-0.087v-1.987
		c0.741-0.116,1.54-0.207,2.397-0.273c0.856-0.066,1.717-0.083,2.582-0.051V43.3h-2.965V27.847z"/>
	<path fill="#E1001A" d="M88.838,49.51c-0.417,0-0.818-0.022-1.204-0.072l0.232-2.584c0.34,0.049,0.68,0.073,1.019,0.073
		c0.973,0,1.691-0.244,2.154-0.731c0.463-0.489,0.695-1.379,0.695-2.671V31.872h2.964v8.845h2.177V43.3h-2.177v0.1
		c0,0.794-0.085,1.56-0.255,2.297c-0.17,0.738-0.475,1.387-0.914,1.951c-0.44,0.563-1.039,1.015-1.795,1.355
		C90.977,49.34,90.011,49.51,88.838,49.51z M93.123,30.034c-0.463,0-0.861-0.178-1.193-0.534s-0.498-0.782-0.498-1.279
		c0-0.48,0.167-0.898,0.498-1.254s0.73-0.535,1.193-0.535c0.463,0,0.856,0.178,1.181,0.535c0.324,0.356,0.486,0.774,0.486,1.254
		c0,0.497-0.162,0.923-0.486,1.279C93.979,29.856,93.586,30.034,93.123,30.034z"/>
	<path fill="#E1001A" d="M97.128,48.741c-0.462,0-0.848-0.178-1.157-0.534c-0.309-0.356-0.463-0.783-0.463-1.28
		c0-0.479,0.154-0.897,0.463-1.253c0.309-0.356,0.695-0.535,1.157-0.535c0.464,0,0.846,0.178,1.147,0.535
		c0.301,0.356,0.452,0.774,0.452,1.253c0,0.497-0.151,0.924-0.452,1.28C97.974,48.563,97.592,48.741,97.128,48.741z M96.411,40.717
		h3.242v-8.845h2.941V43.3h-6.183V40.717z M100.903,48.741c-0.463,0-0.849-0.178-1.158-0.534c-0.309-0.356-0.463-0.783-0.463-1.28
		c0-0.479,0.154-0.897,0.463-1.253c0.309-0.356,0.695-0.535,1.158-0.535s0.846,0.178,1.146,0.535
		c0.302,0.356,0.452,0.774,0.452,1.253c0,0.497-0.15,0.924-0.452,1.28C101.749,48.563,101.366,48.741,100.903,48.741z"/>
	<path fill="#E1001A" d="M104.261,49.51c-0.417,0-0.818-0.022-1.204-0.072l0.231-2.584c0.34,0.049,0.68,0.073,1.02,0.073
		c0.973,0,1.69-0.244,2.154-0.731c0.463-0.489,0.694-1.379,0.694-2.671V31.872h2.965v8.845h2.177V43.3h-2.177v0.1
		c0,0.794-0.086,1.56-0.255,2.297c-0.171,0.738-0.475,1.387-0.915,1.951c-0.44,0.563-1.039,1.015-1.795,1.355
		C106.399,49.34,105.434,49.51,104.261,49.51z M108.545,30.034c-0.463,0-0.86-0.178-1.193-0.534
		c-0.331-0.356-0.498-0.782-0.498-1.279c0-0.48,0.167-0.898,0.498-1.254c0.333-0.356,0.73-0.535,1.193-0.535
		s0.857,0.178,1.181,0.535c0.325,0.356,0.487,0.774,0.487,1.254c0,0.497-0.162,0.923-0.487,1.279
		C109.402,29.856,109.009,30.034,108.545,30.034z"/>
	<path fill="#E1001A" d="M111.833,40.717h1.227c1.59,0,3.042-0.315,4.354-0.943c-0.339-0.349-0.664-0.688-0.972-1.02
		c-0.309-0.331-0.637-0.646-0.984-0.944c-0.348-0.298-0.738-0.579-1.169-0.845c-0.433-0.265-0.95-0.513-1.552-0.745l0.324-2.708
		c0.927-0.696,1.891-1.251,2.896-1.665c1.003-0.414,2.03-0.622,3.08-0.622c0.849,0,1.59,0.117,2.223,0.349s1.162,0.546,1.587,0.943
		c0.424,0.397,0.741,0.866,0.949,1.405c0.209,0.538,0.313,1.122,0.313,1.751c0,0.729-0.193,1.441-0.579,2.136
		c-0.385,0.696-0.926,1.366-1.622,2.012c0.433,0.266,0.842,0.48,1.228,0.646c0.386,0.165,0.857,0.249,1.413,0.249h0.765V43.3h-0.88
		c-1.066,0-2.003-0.153-2.814-0.459c-0.81-0.307-1.54-0.716-2.188-1.23c-0.926,0.531-1.91,0.944-2.953,1.242
		c-1.042,0.298-2.081,0.447-3.114,0.447h-1.529V40.717z M119.823,38.282c0.418-0.381,0.73-0.778,0.938-1.193
		c0.208-0.414,0.313-0.812,0.313-1.192c0-0.612-0.201-1.102-0.602-1.466c-0.402-0.364-0.942-0.546-1.622-0.546
		c-0.602,0-1.139,0.104-1.609,0.311c-0.471,0.207-0.915,0.459-1.332,0.757c0.401,0.166,0.76,0.361,1.077,0.584
		c0.315,0.224,0.625,0.472,0.926,0.745c0.301,0.274,0.602,0.576,0.903,0.907C119.117,37.521,119.452,37.884,119.823,38.282z"/>
	<path fill="#E1001A" d="M124.848,40.717h3.172V25.338h2.964V43.3h-6.136V40.717z"/>
	<path fill="#E1001A" d="M135.547,27.847c-0.278-0.033-0.599-0.062-0.961-0.087c-0.363-0.024-0.714-0.053-1.054-0.087v-1.987
		c0.741-0.116,1.54-0.207,2.397-0.273c0.856-0.066,1.717-0.083,2.582-0.051V43.3h-2.964V27.847z"/>
	<path fill="#E1001A" d="M146.339,40.717h6.785c0-0.58-0.066-1.209-0.197-1.889c-0.132-0.679-0.398-1.346-0.799-2
		c-0.401-0.655-0.969-1.263-1.702-1.826c-0.734-0.562-1.702-1.01-2.906-1.342l0.231-2.708c1.56,0.215,2.868,0.65,3.926,1.305
		c1.057,0.655,1.91,1.428,2.559,2.323c0.649,0.894,1.115,1.872,1.402,2.931c0.285,1.06,0.428,2.103,0.428,3.13v0.075h1.482V43.3
		h-11.208V40.717z"/>
	<path fill="#E1001A" d="M157.084,40.717h3.242v-8.845h2.941v8.845h2.177V43.3h-8.36V40.717z M161.276,48.741
		c-0.464,0-0.861-0.178-1.192-0.534c-0.332-0.356-0.498-0.783-0.498-1.28c0-0.479,0.166-0.897,0.498-1.253
		c0.331-0.356,0.729-0.535,1.192-0.535c0.463,0,0.856,0.178,1.181,0.535c0.325,0.356,0.486,0.774,0.486,1.253
		c0,0.497-0.162,0.924-0.486,1.28C162.132,48.563,161.739,48.741,161.276,48.741z"/>
	<path fill="#E1001A" d="M164.981,40.717h3.543c-0.495-0.497-0.845-1.081-1.054-1.751c-0.208-0.671-0.313-1.33-0.313-1.975
		c0-0.795,0.154-1.532,0.463-2.211c0.309-0.679,0.725-1.258,1.25-1.739s1.143-0.857,1.854-1.131c0.709-0.273,1.465-0.41,2.268-0.41
		c0.45,0,0.888,0.038,1.32,0.112c0.432,0.074,0.834,0.177,1.205,0.31l-0.462,2.733c-0.311-0.132-0.637-0.248-0.985-0.348
		c-0.348-0.099-0.745-0.148-1.192-0.148c-0.371,0-0.727,0.071-1.065,0.211c-0.34,0.141-0.645,0.345-0.914,0.609
		c-0.271,0.265-0.484,0.587-0.638,0.969c-0.154,0.381-0.232,0.803-0.232,1.266c0,0.432,0.066,0.857,0.197,1.28
		c0.132,0.423,0.359,0.799,0.684,1.13c0.324,0.333,0.76,0.597,1.309,0.795c0.547,0.199,1.23,0.298,2.048,0.298h2.363V43.3h-11.649
		V40.717z"/>
	<path fill="#E1001A" d="M201.268,37.288c0-1.143-0.195-1.951-0.581-2.422c-0.387-0.472-1.063-0.708-2.036-0.708
		c-0.171,0-0.332,0.009-0.486,0.025s-0.294,0.033-0.417,0.049V43.3h-5.603c-1.745,0-3.185-0.199-4.319-0.596
		c-1.136-0.397-2.038-0.937-2.71-1.616c-0.671-0.679-1.143-1.466-1.412-2.36s-0.405-1.83-0.405-2.807
		c0-0.531,0.042-1.114,0.128-1.751c0.083-0.637,0.188-1.221,0.312-1.752l3.126-0.621c-0.216,0.597-0.37,1.197-0.462,1.801
		c-0.093,0.605-0.139,1.255-0.139,1.95c0,0.812,0.1,1.537,0.301,2.175c0.2,0.638,0.545,1.18,1.03,1.627
		c0.488,0.447,1.135,0.787,1.946,1.019c0.811,0.231,1.818,0.348,3.021,0.348h2.246v-8.745c0.635-0.149,1.273-0.265,1.921-0.348
		c0.648-0.083,1.32-0.124,2.015-0.124c1.064,0,1.948,0.137,2.651,0.41c0.703,0.273,1.263,0.658,1.68,1.155
		c0.416,0.498,0.71,1.103,0.88,1.814c0.169,0.713,0.254,1.508,0.254,2.385v3.454h2.178V43.3h-5.117V37.288z M189.597,48.741
		c-0.462,0-0.849-0.178-1.158-0.534c-0.309-0.356-0.463-0.783-0.463-1.28c0-0.479,0.154-0.897,0.463-1.253
		c0.309-0.356,0.696-0.535,1.158-0.535c0.464,0,0.846,0.178,1.146,0.535c0.302,0.356,0.452,0.774,0.452,1.253
		c0,0.497-0.15,0.924-0.452,1.28C190.443,48.563,190.061,48.741,189.597,48.741z M193.373,48.741c-0.463,0-0.85-0.178-1.159-0.534
		c-0.309-0.356-0.463-0.783-0.463-1.28c0-0.479,0.155-0.897,0.463-1.253c0.309-0.356,0.696-0.535,1.159-0.535
		c0.463,0,0.845,0.178,1.146,0.535c0.302,0.356,0.451,0.774,0.451,1.253c0,0.497-0.149,0.924-0.451,1.28
		C194.217,48.563,193.836,48.741,193.373,48.741z"/>
	<path fill="#E1001A" d="M205.923,40.717h3.172V25.338h2.963v15.378h2.179V43.3h-8.313V40.717z"/>
	<path fill="#E1001A" d="M213.772,40.717h3.543c-0.493-0.497-0.845-1.081-1.052-1.751c-0.21-0.671-0.315-1.33-0.315-1.975
		c0-0.795,0.154-1.532,0.464-2.211c0.309-0.679,0.726-1.258,1.253-1.739c0.523-0.48,1.142-0.857,1.851-1.131
		c0.711-0.273,1.468-0.41,2.27-0.41c0.449,0,0.889,0.038,1.32,0.112c0.433,0.074,0.833,0.177,1.204,0.31l-0.463,2.733
		c-0.309-0.132-0.637-0.248-0.984-0.348c-0.349-0.099-0.745-0.148-1.192-0.148c-0.37,0-0.727,0.071-1.066,0.211
		c-0.339,0.141-0.643,0.345-0.913,0.609c-0.271,0.265-0.484,0.587-0.637,0.969c-0.155,0.381-0.232,0.803-0.232,1.266
		c0,0.432,0.065,0.857,0.195,1.28c0.134,0.423,0.359,0.799,0.685,1.13c0.324,0.333,0.761,0.597,1.309,0.795
		c0.548,0.199,1.231,0.298,2.05,0.298h2.362V43.3h-11.649V40.717z"/>
	<path fill="#E1001A" d="M238.806,49.487c-1.282,0-2.354-0.108-3.22-0.324c-0.864-0.216-1.556-0.509-2.071-0.882
		c-0.519-0.372-0.885-0.816-1.103-1.329c-0.215-0.513-0.322-1.068-0.322-1.664c0-0.663,0.15-1.259,0.451-1.79
		c0.301-0.529,0.697-1.009,1.193-1.44c0.494-0.431,1.048-0.833,1.667-1.205c0.617-0.373,1.242-0.733,1.875-1.08
		c-0.68-0.763-1.388-1.462-2.129-2.101c-0.742-0.637-1.592-1.121-2.55-1.453l0.326-2.708c0.924-0.696,1.891-1.251,2.895-1.665
		c1.002-0.414,2.028-0.622,3.081-0.622c0.83,0,1.562,0.112,2.188,0.335c0.626,0.224,1.153,0.535,1.586,0.932
		c0.433,0.398,0.756,0.869,0.974,1.417c0.215,0.546,0.323,1.135,0.323,1.764c0,0.762-0.182,1.466-0.544,2.112
		c-0.364,0.646-0.915,1.325-1.656,2.037c0.231,0.134,0.444,0.253,0.636,0.361c0.194,0.108,0.391,0.203,0.592,0.286
		c0.201,0.083,0.412,0.145,0.638,0.187c0.223,0.041,0.481,0.062,0.774,0.062h0.764V43.3h-0.879c-0.587,0-1.112-0.049-1.574-0.149
		c-0.463-0.1-0.892-0.236-1.285-0.409c-0.395-0.174-0.765-0.381-1.112-0.621c-0.347-0.241-0.69-0.51-1.029-0.808
		c-0.543,0.298-1.063,0.588-1.563,0.87c-0.502,0.282-0.942,0.571-1.321,0.869c-0.379,0.298-0.682,0.609-0.915,0.932
		c-0.23,0.323-0.346,0.667-0.346,1.031c0,0.248,0.05,0.484,0.148,0.708c0.102,0.224,0.29,0.417,0.567,0.583
		c0.279,0.165,0.668,0.298,1.171,0.398c0.501,0.099,1.152,0.149,1.956,0.149c0.387,0,0.73-0.008,1.031-0.025
		s0.582-0.038,0.845-0.063c0.263-0.024,0.518-0.058,0.765-0.099c0.248-0.042,0.51-0.088,0.787-0.137l-0.209,2.609
		c-0.493,0.099-1.018,0.183-1.575,0.248C240.079,49.453,239.47,49.487,238.806,49.487z M239.686,38.282
		c0.354-0.315,0.651-0.687,0.892-1.118c0.239-0.43,0.358-0.853,0.358-1.267c0-0.597-0.197-1.081-0.591-1.454
		c-0.393-0.372-0.938-0.559-1.631-0.559c-0.588,0-1.121,0.104-1.599,0.311c-0.479,0.207-0.927,0.459-1.345,0.757
		c0.449,0.232,0.847,0.473,1.194,0.721c0.348,0.249,0.671,0.509,0.972,0.783c0.301,0.273,0.591,0.559,0.869,0.857
		S239.377,37.934,239.686,38.282z"/>
	<path fill="#E1001A" d="M244.712,40.717h3.239v-8.845h2.942V43.3h-6.182V40.717z M247.976,48.741c-0.463,0-0.859-0.178-1.191-0.534
		c-0.334-0.356-0.499-0.783-0.499-1.28c0-0.479,0.165-0.897,0.499-1.253c0.332-0.356,0.729-0.535,1.191-0.535
		c0.464,0,0.856,0.178,1.181,0.535c0.325,0.356,0.486,0.774,0.486,1.253c0,0.497-0.161,0.924-0.486,1.28
		C248.833,48.563,248.44,48.741,247.976,48.741z"/>
	<path fill="#E1001A" d="M254.993,27.847c-0.278-0.033-0.598-0.062-0.961-0.087c-0.362-0.024-0.714-0.053-1.053-0.087v-1.987
		c0.74-0.116,1.539-0.207,2.396-0.273c0.857-0.066,1.718-0.083,2.582-0.051v15.354h1.946V43.3h-4.91V27.847z"/>
	<path fill="#E1001A" d="M259.441,40.717h2.986V25.338h2.963v7.652c0,0.662-0.03,1.3-0.092,1.913
		c-0.062,0.612-0.146,1.201-0.256,1.764h0.024c0.264-0.547,0.605-1.122,1.031-1.727c0.423-0.604,0.919-1.163,1.482-1.676
		c0.562-0.514,1.188-0.936,1.874-1.267c0.688-0.331,1.408-0.497,2.167-0.497c1.449,0,2.588,0.472,3.415,1.416
		c0.825,0.945,1.239,2.36,1.239,4.249v3.553h2.152V43.3h-18.987V40.717z M273.126,40.717v-3.23c0-1.175-0.144-2.028-0.43-2.559
		c-0.286-0.529-0.791-0.794-1.517-0.794c-0.633,0-1.243,0.186-1.83,0.559c-0.585,0.373-1.133,0.866-1.644,1.479
		c-0.509,0.612-0.964,1.312-1.366,2.099c-0.401,0.787-0.74,1.603-1.019,2.447H273.126z"/>
	<path fill="#E1001A" d="M277.965,40.717h0.927c0.293,0,0.553-0.083,0.775-0.249c0.225-0.166,0.409-0.385,0.557-0.659
		c0.146-0.273,0.258-0.579,0.335-0.919c0.077-0.339,0.115-0.675,0.115-1.006c0-1.093,0.132-2.041,0.396-2.844
		c0.261-0.804,0.636-1.466,1.122-1.988c0.485-0.522,1.068-0.911,1.749-1.168c0.679-0.257,1.435-0.385,2.269-0.385
		c0.772,0,1.451,0.145,2.038,0.436c0.587,0.289,1.076,0.704,1.471,1.242s0.694,1.18,0.902,1.925
		c0.209,0.745,0.313,1.574,0.313,2.484V43.3h-4.539c-0.727,0-1.359-0.066-1.899-0.199c-0.54-0.132-1-0.302-1.377-0.51
		c-0.379-0.207-0.68-0.439-0.903-0.695c-0.224-0.256-0.383-0.501-0.474-0.733c-0.217,0.695-0.588,1.226-1.113,1.59
		c-0.524,0.365-1.266,0.547-2.223,0.547h-0.44V40.717z M287.969,40.717v-3.578c0-1.06-0.193-1.843-0.578-2.348
		c-0.388-0.505-0.88-0.758-1.482-0.758c-0.617,0-1.135,0.286-1.553,0.857c-0.415,0.572-0.624,1.305-0.624,2.199
		c0,1.309,0.224,2.24,0.672,2.794c0.446,0.556,1.242,0.833,2.385,0.833H287.969z"/>
</g>
<g>
	<path fill="#172982" stroke="#172982" stroke-miterlimit="10" d="M22.63,79.411c-0.325-0.888-0.629-1.76-0.915-2.616
		c-0.286-0.858-0.582-1.73-0.886-2.618h-8.976l-1.801,5.234H7.165c0.763-2.168,1.477-4.174,2.144-6.018
		c0.667-1.843,1.32-3.593,1.958-5.249c0.638-1.654,1.272-3.236,1.901-4.746c0.628-1.509,1.286-3,1.972-4.479h2.544
		c0.686,1.479,1.344,2.971,1.973,4.479c0.628,1.51,1.262,3.092,1.9,4.746c0.639,1.656,1.291,3.406,1.958,5.249
		c0.667,1.844,1.382,3.85,2.144,6.018H22.63z M20.028,71.81c-0.61-1.714-1.215-3.374-1.815-4.981
		c-0.599-1.606-1.224-3.148-1.872-4.628c-0.667,1.479-1.301,3.021-1.902,4.628c-0.6,1.607-1.195,3.268-1.786,4.981H20.028z"/>
	<path fill="#172982" stroke="#172982" stroke-miterlimit="10" d="M32.635,79.708c-1.64-0.041-2.802-0.405-3.488-1.095
		c-0.686-0.691-1.029-1.766-1.029-3.225V56.937l2.659-0.474v18.483c0,0.452,0.037,0.827,0.114,1.123
		c0.076,0.295,0.2,0.532,0.372,0.709c0.171,0.179,0.4,0.311,0.686,0.399c0.285,0.09,0.638,0.162,1.057,0.222L32.635,79.708z"/>
	<path fill="#172982" stroke="#172982" stroke-miterlimit="10" d="M34.436,69.267h7.061v2.574h-7.061V69.267z"/>
	<path fill="#172982" stroke="#172982" stroke-miterlimit="10" d="M44.697,79.411V58.918H56.79v2.454h-9.32v6.093h8.291v2.394H47.47
		v7.099h10.035v2.453H44.697z"/>
	<path fill="#172982" stroke="#172982" stroke-miterlimit="10" d="M64.308,77.429c1.087,0,1.891-0.148,2.416-0.443
		c0.523-0.295,0.785-0.77,0.785-1.42c0-0.668-0.257-1.202-0.771-1.597c-0.514-0.393-1.363-0.836-2.543-1.331
		c-0.572-0.234-1.12-0.478-1.645-0.725c-0.524-0.245-0.977-0.536-1.357-0.87c-0.382-0.336-0.687-0.74-0.916-1.215
		c-0.229-0.472-0.343-1.054-0.343-1.743c0-1.361,0.487-2.439,1.458-3.238c0.972-0.799,2.296-1.197,3.974-1.197
		c0.42,0,0.838,0.025,1.258,0.073c0.418,0.049,0.809,0.11,1.171,0.179c0.363,0.069,0.682,0.144,0.958,0.221
		c0.277,0.079,0.491,0.147,0.644,0.206l-0.486,2.367c-0.286-0.158-0.734-0.32-1.344-0.488c-0.61-0.167-1.343-0.252-2.201-0.252
		c-0.743,0-1.391,0.154-1.944,0.46c-0.552,0.306-0.829,0.783-0.829,1.434c0,0.334,0.062,0.631,0.186,0.888
		c0.124,0.256,0.314,0.487,0.572,0.693c0.257,0.207,0.576,0.398,0.957,0.577c0.38,0.176,0.838,0.364,1.372,0.563
		c0.705,0.276,1.334,0.548,1.887,0.812c0.553,0.267,1.024,0.578,1.415,0.933s0.69,0.782,0.901,1.286
		c0.209,0.502,0.315,1.119,0.315,1.849c0,1.42-0.511,2.493-1.53,3.223c-1.02,0.729-2.473,1.094-4.359,1.094
		c-1.315,0-2.344-0.114-3.087-0.339c-0.743-0.228-1.248-0.4-1.515-0.518l0.485-2.365c0.305,0.117,0.792,0.293,1.458,0.531
		C62.316,77.311,63.203,77.429,64.308,77.429z"/>
	<path fill="#172982" stroke="#172982" stroke-miterlimit="10" d="M77.057,77.429c1.086,0,1.891-0.148,2.416-0.443
		c0.524-0.295,0.786-0.77,0.786-1.42c0-0.668-0.257-1.202-0.771-1.597c-0.516-0.393-1.363-0.836-2.545-1.331
		c-0.572-0.234-1.121-0.478-1.643-0.725c-0.524-0.245-0.978-0.536-1.358-0.87c-0.381-0.336-0.687-0.74-0.915-1.215
		c-0.229-0.472-0.343-1.054-0.343-1.743c0-1.361,0.485-2.439,1.457-3.238s2.297-1.197,3.974-1.197c0.419,0,0.839,0.025,1.258,0.073
		c0.418,0.049,0.81,0.11,1.172,0.179c0.362,0.069,0.681,0.144,0.957,0.221c0.276,0.079,0.491,0.147,0.643,0.206l-0.485,2.367
		c-0.286-0.158-0.734-0.32-1.344-0.488c-0.609-0.167-1.343-0.252-2.201-0.252c-0.743,0-1.391,0.154-1.944,0.46
		s-0.828,0.783-0.828,1.434c0,0.334,0.061,0.631,0.185,0.888c0.124,0.256,0.314,0.487,0.572,0.693
		c0.257,0.207,0.576,0.398,0.958,0.577c0.381,0.176,0.838,0.364,1.373,0.563c0.705,0.276,1.333,0.548,1.885,0.812
		c0.553,0.267,1.025,0.578,1.415,0.933c0.391,0.354,0.691,0.782,0.901,1.286c0.209,0.502,0.314,1.119,0.314,1.849
		c0,1.42-0.51,2.493-1.529,3.223c-1.02,0.729-2.473,1.094-4.359,1.094c-1.315,0-2.344-0.114-3.087-0.339
		c-0.744-0.228-1.249-0.4-1.515-0.518l0.486-2.365c0.305,0.117,0.791,0.293,1.458,0.531C75.065,77.311,75.951,77.429,77.057,77.429z
		"/>
	<path fill="#172982" stroke="#172982" stroke-miterlimit="10" d="M91.15,63.65c1.066,0,1.968,0.143,2.702,0.428
		c0.733,0.288,1.323,0.692,1.772,1.213c0.447,0.522,0.767,1.145,0.957,1.862c0.191,0.722,0.286,1.516,0.286,2.381v9.612
		c-0.229,0.037-0.548,0.093-0.958,0.161c-0.41,0.07-0.873,0.132-1.386,0.192c-0.515,0.059-1.072,0.113-1.672,0.162
		c-0.601,0.049-1.196,0.074-1.787,0.074c-0.839,0-1.61-0.088-2.315-0.266c-0.705-0.177-1.314-0.46-1.83-0.842
		c-0.515-0.386-0.915-0.894-1.201-1.523c-0.286-0.631-0.428-1.391-0.428-2.278c0-0.847,0.167-1.576,0.501-2.188
		c0.333-0.609,0.786-1.103,1.357-1.478s1.238-0.65,2.001-0.827c0.762-0.178,1.562-0.268,2.4-0.268c0.267,0,0.544,0.016,0.829,0.046
		c0.286,0.028,0.558,0.068,0.815,0.117c0.257,0.049,0.481,0.095,0.672,0.133c0.19,0.041,0.324,0.069,0.4,0.09v-0.77
		c0-0.452-0.047-0.902-0.143-1.346c-0.097-0.443-0.268-0.837-0.515-1.184c-0.248-0.344-0.585-0.62-1.015-0.827
		c-0.429-0.206-0.986-0.31-1.672-0.31c-0.878,0-1.644,0.063-2.301,0.191c-0.658,0.128-1.149,0.262-1.473,0.399l-0.314-2.278
		c0.343-0.156,0.914-0.309,1.715-0.456C89.349,63.723,90.216,63.65,91.15,63.65z M91.378,77.429c0.629,0,1.187-0.014,1.672-0.044
		c0.486-0.029,0.891-0.085,1.215-0.162v-4.585c-0.19-0.098-0.5-0.182-0.929-0.251c-0.428-0.068-0.948-0.104-1.558-0.104
		c-0.4,0-0.824,0.03-1.271,0.088c-0.448,0.06-0.857,0.184-1.229,0.37c-0.372,0.188-0.682,0.444-0.929,0.77
		c-0.248,0.325-0.372,0.754-0.372,1.287c0,0.985,0.305,1.671,0.915,2.054C89.502,77.238,90.331,77.429,91.378,77.429z"/>
	<path fill="#172982" stroke="#172982" stroke-miterlimit="10" d="M113.303,58.711c2.782,0,4.92,0.547,6.417,1.643
		c1.496,1.092,2.244,2.725,2.244,4.893c0,1.182-0.204,2.193-0.614,3.03c-0.41,0.84-1,1.519-1.773,2.042
		c-0.771,0.521-1.709,0.9-2.815,1.137c-1.106,0.238-2.354,0.354-3.745,0.354h-2.201v7.601h-2.772V59.213
		c0.781-0.196,1.652-0.33,2.616-0.397C111.621,58.747,112.502,58.711,113.303,58.711z M113.532,61.224
		c-1.182,0-2.087,0.03-2.716,0.09v8.043h2.087c0.952,0,1.81-0.063,2.572-0.191c0.762-0.128,1.406-0.346,1.93-0.651
		c0.523-0.306,0.929-0.725,1.214-1.257c0.286-0.533,0.429-1.212,0.429-2.04c0-0.789-0.147-1.439-0.443-1.952s-0.695-0.921-1.2-1.228
		c-0.505-0.303-1.092-0.519-1.758-0.636C114.979,61.285,114.275,61.224,113.532,61.224z"/>
	<path fill="#172982" stroke="#172982" stroke-miterlimit="10" d="M130.74,63.708c0.229,0,0.491,0.015,0.786,0.045
		c0.295,0.029,0.586,0.069,0.872,0.119c0.285,0.049,0.548,0.099,0.786,0.147s0.414,0.095,0.529,0.132l-0.458,2.396
		c-0.209-0.079-0.558-0.173-1.043-0.281c-0.486-0.109-1.111-0.162-1.873-0.162c-0.495,0-0.986,0.053-1.471,0.162
		c-0.486,0.108-0.806,0.181-0.958,0.223v12.921h-2.658V64.685c0.628-0.237,1.41-0.458,2.343-0.665S129.578,63.708,130.74,63.708z"/>
	<path fill="#172982" stroke="#172982" stroke-miterlimit="10" d="M137.601,61.254c-0.477,0-0.882-0.163-1.216-0.487
		c-0.333-0.327-0.5-0.763-0.5-1.316c0-0.551,0.166-0.99,0.5-1.316c0.334-0.323,0.739-0.486,1.216-0.486s0.881,0.163,1.215,0.486
		c0.333,0.326,0.5,0.766,0.5,1.316c0,0.554-0.167,0.989-0.5,1.316C138.481,61.091,138.077,61.254,137.601,61.254z M138.944,79.411
		h-2.659V64.036h2.659V79.411z"/>
	<path fill="#172982" stroke="#172982" stroke-miterlimit="10" d="M143.517,64.477c0.609-0.156,1.419-0.325,2.43-0.503
		c1.009-0.177,2.172-0.266,3.487-0.266c1.181,0,2.163,0.173,2.944,0.519c0.782,0.344,1.406,0.826,1.873,1.448
		c0.466,0.621,0.795,1.365,0.986,2.231c0.191,0.868,0.286,1.824,0.286,2.869v8.635h-2.658v-8.043c0-0.947-0.062-1.755-0.186-2.425
		c-0.125-0.671-0.329-1.212-0.615-1.627c-0.286-0.413-0.667-0.714-1.143-0.9c-0.477-0.188-1.067-0.281-1.772-0.281
		c-0.287,0-0.582,0.01-0.886,0.028c-0.306,0.021-0.597,0.045-0.873,0.074c-0.277,0.03-0.525,0.064-0.743,0.104
		c-0.22,0.039-0.376,0.069-0.472,0.087v12.982h-2.659V64.477z"/>
	<path fill="#172982" stroke="#172982" stroke-miterlimit="10" d="M162.413,64.036h5.631v2.306h-5.631v7.098
		c0,0.768,0.057,1.403,0.172,1.906c0.114,0.501,0.285,0.897,0.513,1.183c0.229,0.285,0.515,0.487,0.858,0.605
		c0.343,0.119,0.743,0.178,1.201,0.178c0.8,0,1.444-0.094,1.929-0.28c0.486-0.187,0.825-0.321,1.016-0.4l0.513,2.278
		c-0.267,0.139-0.734,0.309-1.4,0.518c-0.667,0.206-1.429,0.31-2.288,0.31c-1.01,0-1.843-0.133-2.501-0.398
		c-0.657-0.266-1.186-0.666-1.587-1.197c-0.399-0.533-0.681-1.188-0.843-1.967c-0.162-0.779-0.243-1.681-0.243-2.707v-13.72
		l2.659-0.474V64.036z"/>
	<path fill="#172982" stroke="#172982" stroke-miterlimit="10" d="M172.732,61.254c-0.477,0-0.882-0.163-1.215-0.487
		c-0.334-0.327-0.501-0.763-0.501-1.316c0-0.551,0.167-0.99,0.501-1.316c0.333-0.323,0.739-0.486,1.215-0.486
		c0.476,0,0.881,0.163,1.214,0.486c0.333,0.326,0.5,0.766,0.5,1.316c0,0.554-0.167,0.989-0.5,1.316
		C173.613,61.091,173.208,61.254,172.732,61.254z M174.075,79.411h-2.658V64.036h2.658V79.411z"/>
	<path fill="#172982" stroke="#172982" stroke-miterlimit="10" d="M178.648,64.477c0.61-0.156,1.42-0.325,2.431-0.503
		c1.009-0.177,2.172-0.266,3.487-0.266c1.181,0,2.162,0.173,2.943,0.519c0.782,0.344,1.406,0.826,1.873,1.448
		c0.466,0.621,0.795,1.365,0.986,2.231c0.19,0.868,0.286,1.824,0.286,2.869v8.635h-2.658v-8.043c0-0.947-0.063-1.755-0.187-2.425
		c-0.123-0.671-0.328-1.212-0.614-1.627c-0.286-0.413-0.667-0.714-1.144-0.9c-0.476-0.188-1.067-0.281-1.771-0.281
		c-0.287,0-0.582,0.01-0.887,0.028c-0.305,0.021-0.596,0.045-0.872,0.074c-0.276,0.03-0.525,0.064-0.744,0.104
		c-0.219,0.039-0.376,0.069-0.472,0.087v12.982h-2.659V64.477z"/>
	<path fill="#172982" stroke="#172982" stroke-miterlimit="10" d="M204.375,77.874c-0.229,0.156-0.671,0.359-1.329,0.605
		s-1.424,0.37-2.302,0.37c-0.894,0-1.738-0.147-2.529-0.444c-0.791-0.295-1.483-0.754-2.073-1.374
		c-0.591-0.622-1.057-1.396-1.4-2.321c-0.343-0.927-0.515-2.031-0.515-3.312c0-1.125,0.162-2.154,0.486-3.092
		c0.324-0.935,0.796-1.743,1.416-2.424c0.62-0.681,1.376-1.211,2.271-1.597c0.896-0.384,1.906-0.577,3.031-0.577
		c1.239,0,2.32,0.095,3.244,0.281c0.924,0.188,1.7,0.359,2.33,0.518v13.72c0,2.365-0.591,4.081-1.771,5.146
		c-1.183,1.063-2.974,1.597-5.373,1.597c-0.936,0-1.816-0.079-2.646-0.236c-0.83-0.159-1.549-0.346-2.159-0.562l0.486-2.396
		c0.533,0.217,1.186,0.408,1.958,0.577c0.771,0.168,1.577,0.251,2.415,0.251c1.582,0,2.722-0.325,3.417-0.977
		c0.696-0.649,1.043-1.686,1.043-3.104V77.874z M204.347,66.458c-0.267-0.078-0.626-0.152-1.072-0.222
		c-0.448-0.069-1.055-0.103-1.815-0.103c-1.429,0-2.53,0.482-3.302,1.447c-0.772,0.967-1.157,2.247-1.157,3.845
		c0,0.888,0.109,1.647,0.33,2.277c0.219,0.631,0.515,1.153,0.885,1.567c0.371,0.413,0.8,0.719,1.287,0.916
		c0.485,0.197,0.985,0.295,1.5,0.295c0.706,0,1.354-0.103,1.944-0.309c0.59-0.209,1.058-0.449,1.4-0.725V66.458z"/>
	<path fill="#172982" stroke="#172982" stroke-miterlimit="10" d="M223.613,58.711c2.782,0,4.922,0.547,6.418,1.643
		c1.496,1.092,2.244,2.725,2.244,4.893c0,1.182-0.205,2.193-0.615,3.03c-0.409,0.84-1,1.519-1.772,2.042
		c-0.771,0.521-1.71,0.9-2.814,1.137c-1.106,0.238-2.354,0.354-3.745,0.354h-2.2v7.601h-2.774V59.213
		c0.781-0.196,1.653-0.33,2.615-0.397C221.93,58.747,222.812,58.711,223.613,58.711z M223.842,61.224
		c-1.182,0-2.087,0.03-2.715,0.09v8.043h2.086c0.952,0,1.81-0.063,2.572-0.191s1.406-0.346,1.931-0.651
		c0.523-0.306,0.928-0.725,1.212-1.257c0.288-0.533,0.43-1.212,0.43-2.04c0-0.789-0.146-1.439-0.442-1.952
		c-0.294-0.513-0.696-0.921-1.199-1.228c-0.506-0.303-1.093-0.519-1.76-0.636S224.584,61.224,223.842,61.224z"/>
	<path fill="#172982" stroke="#172982" stroke-miterlimit="10" d="M241.051,63.708c0.228,0,0.488,0.015,0.785,0.045
		c0.296,0.029,0.586,0.069,0.872,0.119c0.286,0.049,0.548,0.099,0.786,0.147c0.237,0.049,0.413,0.095,0.529,0.132l-0.459,2.396
		c-0.209-0.079-0.558-0.173-1.042-0.281c-0.486-0.109-1.111-0.162-1.873-0.162c-0.495,0-0.987,0.053-1.472,0.162
		c-0.486,0.108-0.806,0.181-0.956,0.223v12.921h-2.66V64.685c0.629-0.237,1.412-0.458,2.344-0.665
		C238.839,63.813,239.888,63.708,241.051,63.708z"/>
	<path fill="#172982" stroke="#172982" stroke-miterlimit="10" d="M245.767,71.752c0-1.359,0.19-2.548,0.571-3.564
		c0.381-1.015,0.886-1.857,1.516-2.527c0.628-0.67,1.352-1.173,2.172-1.509c0.818-0.335,1.657-0.502,2.516-0.502
		c2,0,3.535,0.646,4.603,1.938c1.066,1.289,1.601,3.257,1.601,5.9c0,0.117,0,0.27,0,0.456c0,0.188-0.01,0.359-0.029,0.518h-10.175
		c0.113,1.598,0.562,2.81,1.343,3.638c0.781,0.827,2,1.241,3.659,1.241c0.933,0,1.72-0.083,2.358-0.251
		c0.638-0.167,1.119-0.33,1.443-0.487l0.371,2.307c-0.324,0.176-0.892,0.364-1.7,0.562c-0.812,0.196-1.729,0.295-2.759,0.295
		c-1.296,0-2.416-0.201-3.359-0.606c-0.943-0.403-1.72-0.96-2.33-1.672c-0.608-0.708-1.063-1.551-1.358-2.526
		C245.914,73.985,245.767,72.916,245.767,71.752z M255.971,70.245c0.019-1.243-0.28-2.263-0.899-3.063
		c-0.62-0.797-1.472-1.195-2.559-1.195c-0.61,0-1.148,0.123-1.615,0.367c-0.468,0.248-0.862,0.569-1.187,0.962
		c-0.325,0.396-0.576,0.849-0.758,1.36c-0.182,0.513-0.3,1.035-0.357,1.568H255.971z"/>
	<path fill="#172982" stroke="#172982" stroke-miterlimit="10" d="M266.032,77.429c1.088,0,1.893-0.148,2.418-0.443
		c0.523-0.295,0.786-0.77,0.786-1.42c0-0.668-0.258-1.202-0.772-1.597c-0.515-0.393-1.363-0.836-2.544-1.331
		c-0.572-0.234-1.12-0.478-1.645-0.725c-0.523-0.245-0.977-0.536-1.356-0.87c-0.383-0.336-0.687-0.74-0.916-1.215
		c-0.229-0.472-0.342-1.054-0.342-1.743c0-1.361,0.485-2.439,1.456-3.238c0.974-0.799,2.297-1.197,3.975-1.197
		c0.419,0,0.839,0.025,1.258,0.073c0.418,0.049,0.811,0.11,1.171,0.179c0.363,0.069,0.684,0.144,0.959,0.221
		c0.277,0.079,0.49,0.147,0.642,0.206l-0.484,2.367c-0.287-0.158-0.733-0.32-1.344-0.488c-0.611-0.167-1.344-0.252-2.201-0.252
		c-0.743,0-1.392,0.154-1.944,0.46c-0.552,0.306-0.828,0.783-0.828,1.434c0,0.334,0.061,0.631,0.186,0.888
		c0.122,0.256,0.314,0.487,0.571,0.693c0.257,0.207,0.575,0.398,0.956,0.577c0.384,0.176,0.84,0.364,1.375,0.563
		c0.704,0.276,1.333,0.548,1.886,0.812c0.553,0.267,1.024,0.578,1.414,0.933c0.392,0.354,0.69,0.782,0.9,1.286
		c0.211,0.502,0.316,1.119,0.316,1.849c0,1.42-0.511,2.493-1.53,3.223c-1.021,0.729-2.473,1.094-4.361,1.094
		c-1.314,0-2.341-0.114-3.087-0.339c-0.742-0.228-1.248-0.4-1.514-0.518l0.486-2.365c0.304,0.117,0.791,0.293,1.456,0.531
		C264.043,77.311,264.929,77.429,266.032,77.429z"/>
	<path fill="#172982" stroke="#172982" stroke-miterlimit="10" d="M278.783,77.429c1.086,0,1.891-0.148,2.415-0.443
		c0.525-0.295,0.787-0.77,0.787-1.42c0-0.668-0.258-1.202-0.772-1.597c-0.514-0.393-1.362-0.836-2.543-1.331
		c-0.573-0.234-1.121-0.478-1.646-0.725c-0.523-0.245-0.976-0.536-1.356-0.87c-0.382-0.336-0.687-0.74-0.915-1.215
		c-0.229-0.472-0.343-1.054-0.343-1.743c0-1.361,0.485-2.439,1.457-3.238s2.298-1.197,3.974-1.197c0.42,0,0.838,0.025,1.258,0.073
		c0.42,0.049,0.81,0.11,1.171,0.179c0.363,0.069,0.682,0.144,0.958,0.221c0.275,0.079,0.492,0.147,0.645,0.206l-0.487,2.367
		c-0.285-0.158-0.732-0.32-1.343-0.488c-0.609-0.167-1.343-0.252-2.201-0.252c-0.745,0-1.392,0.154-1.942,0.46
		c-0.554,0.306-0.83,0.783-0.83,1.434c0,0.334,0.063,0.631,0.185,0.888c0.125,0.256,0.314,0.487,0.574,0.693
		c0.257,0.207,0.574,0.398,0.956,0.577c0.38,0.176,0.839,0.364,1.371,0.563c0.705,0.276,1.336,0.548,1.888,0.812
		c0.552,0.267,1.024,0.578,1.415,0.933s0.691,0.782,0.9,1.286c0.209,0.502,0.314,1.119,0.314,1.849c0,1.42-0.511,2.493-1.529,3.223
		s-2.474,1.094-4.359,1.094c-1.313,0-2.345-0.114-3.087-0.339c-0.744-0.228-1.248-0.4-1.516-0.518l0.486-2.365
		c0.305,0.117,0.791,0.293,1.459,0.531C276.791,77.311,277.677,77.429,278.783,77.429z"/>
</g>
</svg>
